#!OML:ASF F:\VICON\USERDATA\INSTALL\rory3\rory3.ASF
:FULLY-SPECIFIED
:DEGREES
4922
root -1.71007 14.6395 -18.0479 -539.709 -14.1318 530.445
lowerback 15.4554 0.224937 -11.5167
upperback -2.13222 -2.29288 -1.78896
thorax -10.7736 -0.514887 5.1073
lowerneck -10.2109 -7.99777 -6.26786
upperneck 19.9144 -12.819 8.21176
head 8.83834 -6.12344 2.2973
rclavicle 6.6721e-015 2.03754e-014
rhumerus 49.2418 28.0745 -43.9283
rradius 61.0231
rwrist -60.8309
rhand -4.67822 9.2403
rfingers 7.12502
rthumb 21.1026 -19.6314
lclavicle 6.6721e-015 2.03754e-014
lhumerus 7.01117 -38.717 81.0386
lradius 102.103
lwrist -1.48476
lhand -16.2628 15.438
lfingers 7.12502
lthumb 9.94662 45.183
rfemur -43.4061 -6.48045 7.2083
rtibia 68.275
rfoot -18.1505 1.40537
rtoes -20.6913
lfemur 11.2383 5.5045 -13.762
ltibia 28.4754
lfoot -31.035 4.65118
ltoes -28.3086
4923
root -1.71246 14.6426 -18.0421 -539.77 -13.9099 530.703
lowerback 15.4661 0.199542 -11.3821
upperback -2.06501 -2.27351 -1.66562
thorax -10.7028 -0.512062 5.16345
lowerneck -10.6002 -8.01252 -6.20753
upperneck 20.1903 -12.8087 7.99618
head 8.9842 -6.11385 2.19735
rclavicle 1.87106e-014 -3.0911e-014
rhumerus 49.5714 28.0205 -43.6534
rradius 61.0672
rwrist -60.9031
rhand -4.7749 9.27327
rfingers 7.12502
rthumb 21.0097 -19.6087
lclavicle 1.87106e-014 -3.0911e-014
lhumerus 7.24813 -38.7237 80.9341
lradius 101.968
lwrist -1.43784
lhand -15.9949 15.3715
lfingers 7.12502
lthumb 10.205 45.104
rfemur -43.4561 -6.22139 7.52448
rtibia 68.1666
rfoot -18.0313 1.49511
rtoes -19.9137
lfemur 11.1879 5.67418 -13.4869
ltibia 28.6067
lfoot -31.1159 4.4688
ltoes -27.8295
4924
root -1.71552 14.6444 -18.0366 -539.869 -13.7523 530.904
lowerback 15.4984 0.187604 -11.2722
upperback -1.9744 -2.24803 -1.56699
thorax -10.62 -0.508526 5.20512
lowerneck -10.7422 -8.01661 -6.18245
upperneck 20.1487 -12.7737 7.92955
head 8.98697 -6.0918 2.17076
rclavicle -1.61994e-014 -8.34896e-015
rhumerus 49.7919 27.9392 -43.4655
rradius 61.1344
rwrist -61.1853
rhand -4.82693 9.25863
rfingers 7.12502
rthumb 20.9597 -19.6289
lclavicle -1.61994e-014 -8.34896e-015
lhumerus 7.49973 -38.8264 80.8876
lradius 101.853
lwrist -1.21667
lhand -16.1512 15.8887
lfingers 7.12502
lthumb 10.0543 45.6285
rfemur -43.4544 -5.99864 7.75069
rtibia 68.1108
rfoot -18.2199 1.36434
rtoes -20.3858
lfemur 11.2364 5.75734 -13.2979
ltibia 28.6347
lfoot -31.1137 4.49459
ltoes -27.6148
4925
root -1.72464 14.6354 -18.0357 -539.828 -13.6263 530.83
lowerback 15.334 0.167417 -11.3279
upperback -1.89473 -2.25967 -1.58068
thorax -10.431 -0.526938 5.21814
lowerneck -11.0936 -8.03528 -6.0572
upperneck 20.2837 -12.7715 7.77191
head 9.07855 -6.07785 2.08222
rclavicle 1.67383e-014 1.94809e-014
rhumerus 49.9052 27.8129 -43.4172
rradius 61.123
rwrist -61.2477
rhand -4.89163 9.36293
rfingers 7.12502
rthumb 20.8975 -19.5315
lclavicle 1.67383e-014 1.94809e-014
lhumerus 7.80573 -38.9279 80.7962
lradius 101.712
lwrist -0.829647
lhand -16.3527 16.5073
lfingers 7.12502
lthumb 9.85987 46.2565
rfemur -43.6259 -5.99758 7.65208
rtibia 68.2031
rfoot -18.9463 0.872897
rtoes -23.8118
lfemur 11.3767 5.86006 -13.456
ltibia 28.5192
lfoot -31.0029 5.25269
ltoes -29.3607
4926
root -1.73607 14.6197 -18.0365 -539.763 -13.5416 530.619
lowerback 15.1971 0.146501 -11.431
upperback -1.86018 -2.30199 -1.67059
thorax -10.3071 -0.556544 5.182
lowerneck -10.8867 -8.20389 -6.36676
upperneck 19.9617 -13.0029 8.13029
head 8.99532 -6.18439 2.23184
rclavicle 5.98124e-014 1.11319e-014
rhumerus 49.8894 27.6942 -43.49
rradius 61.1284
rwrist -61.2957
rhand -5.04731 9.25558
rfingers 7.12502
rthumb 20.748 -19.6552
lclavicle 5.98124e-014 1.11319e-014
lhumerus 8.10776 -39.0677 80.632
lradius 101.614
lwrist -0.261539
lhand -16.3728 16.5388
lfingers 7.12502
lthumb 9.84047 46.2889
rfemur -43.7866 -6.15353 7.37273
rtibia 68.3755
rfoot -18.0127 1.54487
rtoes -21.1593
lfemur 11.5922 5.91518 -13.7891
ltibia 28.3643
lfoot -30.822 6.3997
ltoes -31.8556
4927
root -1.74302 14.6071 -18.0361 -539.722 -13.4594 530.479
lowerback 15.3448 0.11017 -11.5105
upperback -2.03841 -2.41601 -1.75538
thorax -10.5788 -0.587632 5.16541
lowerneck -9.67564 -8.42697 -7.0102
upperneck 19.1716 -13.3459 8.77215
head 8.62419 -6.39461 2.56247
rclavicle -6.47603e-016 3.09607e-014
rhumerus 49.5296 27.8921 -43.7142
rradius 61.1491
rwrist -61.4608
rhand -5.31777 9.1637
rfingers 7.12502
rthumb 20.4881 -19.7753
lclavicle -6.47603e-016 3.09607e-014
lhumerus 7.91369 -39.2896 80.6706
lradius 101.542
lwrist 0.237181
lhand -16.405 16.5441
lfingers 7.12502
lthumb 9.80939 46.2956
rfemur -43.9169 -6.25694 7.19417
rtibia 68.5349
rfoot -17.965 1.79266
rtoes -20.7128
lfemur 11.8348 5.9362 -14.0126
ltibia 28.2165
lfoot -30.7166 6.99304
ltoes -32.9233
4928
root -1.74893 14.6232 -18.0442 -539.649 -13.3608 530.284
lowerback 15.3912 0.0772825 -11.6812
upperback -2.19049 -2.52952 -1.84323
thorax -10.7606 -0.620312 5.19299
lowerneck -8.98183 -8.45641 -7.21517
upperneck 18.8212 -13.4286 9.01179
head 8.41845 -6.46522 2.69798
rclavicle 5.11843e-014 1.16289e-014
rhumerus 49.305 28.1043 -43.7965
rradius 61.2419
rwrist -61.802
rhand -5.49721 9.06996
rfingers 7.12502
rthumb 20.3156 -19.8875
lclavicle 5.11843e-014 1.16289e-014
lhumerus 7.71217 -39.5413 80.7333
lradius 101.409
lwrist 0.360588
lhand -16.6716 17.2334
lfingers 7.12502
lthumb 9.55226 46.9968
rfemur -43.8701 -6.31645 6.97517
rtibia 68.5038
rfoot -18.0858 1.95494
rtoes -20.7959
lfemur 11.6687 5.86142 -14.3002
ltibia 28.2121
lfoot -30.6831 6.47375
ltoes -31.1556
4929
root -1.75344 14.6343 -18.049 -539.71 -13.2103 530.313
lowerback 15.3306 0.0562045 -11.785
upperback -2.15438 -2.55519 -1.7759
thorax -10.673 -0.629229 5.32893
lowerneck -9.35905 -8.41961 -7.14687
upperneck 19.0881 -13.3711 8.88833
head 8.55813 -6.42632 2.63353
rclavicle 1.36742e-014 4.81059e-014
rhumerus 49.4534 28.1542 -43.5651
rradius 61.3778
rwrist -62.1101
rhand -5.651 8.81538
rfingers 7.12502
rthumb 20.1678 -20.1577
lclavicle 1.36742e-014 4.81059e-014
lhumerus 7.70265 -39.6541 80.8095
lradius 101.323
lwrist 0.441485
lhand -17.0785 18.1033
lfingers 7.12502
lthumb 9.15957 47.8844
rfemur -43.7786 -6.18048 7.01521
rtibia 68.4022
rfoot -17.9874 1.90153
rtoes -21.4342
lfemur 11.6459 5.82724 -14.2997
ltibia 28.3074
lfoot -31.1082 5.46222
ltoes -28.9624
4930
root -1.75906 14.637 -18.0464 -539.754 -13.0511 530.284
lowerback 15.2346 0.034942 -11.9424
upperback -2.03975 -2.58084 -1.70793
thorax -10.4736 -0.646182 5.49333
lowerneck -9.74409 -8.41556 -7.10355
upperneck 19.2231 -13.3234 8.77158
head 8.65846 -6.3894 2.57567
rclavicle 1.00868e-015 2.68359e-015
rhumerus 49.7774 28.0773 -43.3018
rradius 61.3671
rwrist -62.1763
rhand -5.75483 8.86943
rfingers 7.12502
rthumb 20.068 -20.1142
lclavicle 1.00868e-015 2.68359e-015
lhumerus 7.89544 -39.6865 80.8139
lradius 101.228
lwrist 0.598217
lhand -17.3956 19.3557
lfingers 7.12502
lthumb 8.85359 49.15
rfemur -43.7742 -6.12597 6.99966
rtibia 68.3222
rfoot -17.849 1.95565
rtoes -21.504
lfemur 11.5877 5.77263 -14.3905
ltibia 28.4923
lfoot -31.4582 4.72283
ltoes -27.2396
4931
root -1.76985 14.6403 -18.0434 -539.841 -12.9625 530.426
lowerback 14.9074 -0.0287054 -11.7851
upperback -1.75441 -2.55206 -1.64504
thorax -9.96459 -0.682037 5.4533
lowerneck -9.9189 -8.44857 -7.07994
upperneck 19.0036 -13.3051 8.791
head 8.61468 -6.36254 2.57633
rclavicle -1.36183e-014 -4.06515e-014
rhumerus 50.1953 27.6867 -43.0309
rradius 61.2406
rwrist -62.0281
rhand -5.25232 9.17246
rfingers 7.12502
rthumb 20.551 -19.7598
lclavicle -1.36183e-014 -4.06515e-014
lhumerus 8.33705 -39.7625 80.7245
lradius 101.125
lwrist 0.573833
lhand -17.2833 19.9755
lfingers 7.12502
lthumb 8.96201 49.7651
rfemur -43.6699 -6.1466 7.12334
rtibia 68.2247
rfoot -17.8475 2.12004
rtoes -21.1243
lfemur 11.6044 5.77533 -14.3047
ltibia 28.6482
lfoot -31.5161 4.81258
ltoes -27.2461
